# xmcd CD database file
#
# Track frame offsets:
#	150
#	40622
#	69832
#	100816
#	132861
#	173140
#	213599
#	259889
#	294737
#
# Disc length: 4350 seconds
#
# Revision: 0
# Processed by: cddbd v1.5.2PL0 Copyright (c) Steve Scherf et al.
# Submitted via: CDex 1.51
#
DISCID=8010fc09
DTITLE=Frantz Amathy - Dolphin Spirit
DYEAR=2008
DGENRE=New Age
TTITLE0=Jewel of the dephts
TTITLE1=Asian Romance
TTITLE2=Dolphin spirit
TTITLE3=Healing crystals
TTITLE4=Silent ocean
TTITLE5=Sparkling sea
TTITLE6=Ocean's lullaby
TTITLE7=Peaceful island
TTITLE8=Dolphins waltz
EXTD=YEAR: 2008
EXTT0=
EXTT1=
EXTT2=
EXTT3=
EXTT4=
EXTT5=
EXTT6=
EXTT7=
EXTT8=
PLAYORDER=
